<?xml version="1.0" encoding="utf-8"?>
<svg xmlns="http://www.w3.org/2000/svg" x="0px" y="0px" viewBox="0 0 512.08 512.08" style="enable-background:new 0 0 512.08 512.08;" xml:space="preserve">
<g>
	<rect x="244.04" y="4.648" style="fill:#008dc9;" width="24" height="489.92"/>
	<rect x="11.672" y="244.04" style="fill:#008dc9;" width="493.624" height="24"/>
	<path style="fill:#008dc9;" d="M255.752,196.688c-128.36,0-179.528-106.68-181.64-111.216l21.752-10.144L84.992,80.4l10.864-5.088   c1.872,3.976,47.152,97.376,159.896,97.376c113.168,0,158.168-95.272,158.608-96.232l21.816,10   C434.112,90.952,384.16,196.688,255.752,196.688z"/>
	<path style="fill:#008dc9;" d="M95.864,436.752l-21.752-10.144c2.112-4.536,53.28-111.216,181.64-111.216   c128.408,0,178.36,105.736,180.424,110.232l-21.816,10c-1.816-3.904-45.928-96.232-158.608-96.232   C142.528,339.392,96.312,435.776,95.864,436.752z"/>
	<path style="fill:#008dc9;" d="M242.648,510.696c-4.848-4.44-118.752-110.36-118.752-254.656   c0-144.512,116.504-246.512,121.472-250.792l15.664,18.176c-1.136,0.984-113.136,99.296-113.136,232.616   c0,133.832,109.84,235.936,110.952,236.952L242.648,510.696z"/>
	<path style="fill:#008dc9;" d="M269.432,510.696L253.224,493c1.112-1.024,110.96-103.416,110.96-236.96   c0-133.624-112-231.624-113.128-232.6l15.656-18.184c4.96,4.272,121.472,106.272,121.472,250.784   C388.184,400.336,274.28,506.256,269.432,510.696z"/>
</g>
<path style="fill:#008dc9;" d="M256.04,512.08c-141.16,0-256-114.864-256-256.04S114.88,0,256.04,0s256,114.864,256,256.04S397.2,512.08,256.04,512.08z   M256.04,24c-127.92,0-232,104.096-232,232.04s104.08,232.04,232,232.04s232-104.096,232-232.04S383.96,24,256.04,24z"/>
</svg>
